<svg width="677" height="565" viewBox="0 0 677 565" fill="none" xmlns="http://www.w3.org/2000/svg">
<ellipse cx="263.236" cy="115.818" rx="4.37216" ry="4.2739" fill="#FDB370"/>
<ellipse cx="199.402" cy="115.818" rx="4.37216" ry="4.2739" fill="#FDB370"/>
<ellipse cx="230.882" cy="115.818" rx="4.37216" ry="4.2739" fill="#FF8C67"/>
<ellipse cx="167.923" cy="115.818" rx="4.37216" ry="4.2739" fill="#FF8C67"/>
<ellipse cx="136.443" cy="115.818" rx="4.37216" ry="4.2739" fill="#FF8C67"/>
<ellipse cx="105.838" cy="115.818" rx="4.37216" ry="4.2739" fill="#FF8C67"/>
<ellipse cx="74.3586" cy="115.818" rx="4.37216" ry="4.2739" fill="#FDB370"/>
<ellipse cx="263.236" cy="92.739" rx="4.37216" ry="4.2739" fill="#FF8C67"/>
<ellipse cx="199.402" cy="92.739" rx="4.37216" ry="4.2739" fill="#FF8C67"/>
<ellipse cx="230.882" cy="92.739" rx="4.37216" ry="4.2739" fill="#FF8C67"/>
<ellipse cx="167.923" cy="92.739" rx="4.37216" ry="4.2739" fill="#FF8C67"/>
<ellipse cx="136.443" cy="92.739" rx="4.37216" ry="4.2739" fill="#FDB370"/>
<ellipse cx="262.362" cy="69.6599" rx="4.37216" ry="4.2739" fill="#FF8C67"/>
<ellipse cx="198.528" cy="69.6599" rx="4.37216" ry="4.2739" fill="#FF8C67"/>
<ellipse cx="230.008" cy="69.6599" rx="4.37216" ry="4.2739" fill="#FDB370"/>
<g filter="url(#filter0_d)">
<rect x="285.097" y="50" width="292.061" height="298.318" fill="#1C1E26"/>
<rect x="285.597" y="50.5" width="291.061" height="297.318" stroke="#463B49"/>
</g>
<path d="M340.742 79.9338H338.725V70.9524H340.742V79.9338ZM338.6 68.6199C338.6 68.31 338.697 68.0526 338.891 67.8479C339.09 67.6431 339.372 67.5408 339.738 67.5408C340.103 67.5408 340.385 67.6431 340.584 67.8479C340.783 68.0526 340.883 68.31 340.883 68.6199C340.883 68.9242 340.783 69.1788 340.584 69.3835C340.385 69.5827 340.103 69.6824 339.738 69.6824C339.372 69.6824 339.09 69.5827 338.891 69.3835C338.697 69.1788 338.6 68.9242 338.6 68.6199ZM345.838 70.9524L345.896 71.99C346.56 71.1876 347.431 70.7864 348.511 70.7864C350.381 70.7864 351.333 71.8572 351.366 73.9988V79.9338H349.349V74.115C349.349 73.545 349.224 73.1244 348.975 72.8533C348.732 72.5766 348.331 72.4382 347.772 72.4382C346.958 72.4382 346.352 72.8062 345.954 73.5422V79.9338H343.937V70.9524H345.838ZM354.071 75.3767C354.071 73.9932 354.392 72.8837 355.034 72.0481C355.676 71.2069 356.536 70.7864 357.615 70.7864C358.567 70.7864 359.336 71.1184 359.923 71.7825V67.1838H361.94V79.9338H360.114L360.014 79.0041C359.411 79.7346 358.606 80.0998 357.599 80.0998C356.547 80.0998 355.695 79.6765 355.042 78.8298C354.395 77.9831 354.071 76.8321 354.071 75.3767ZM356.088 75.551C356.088 76.4641 356.262 77.178 356.611 77.6926C356.965 78.2017 357.466 78.4563 358.114 78.4563C358.938 78.4563 359.541 78.0883 359.923 77.3523V73.5173C359.552 72.7979 358.955 72.4382 358.13 72.4382C357.477 72.4382 356.974 72.6983 356.619 73.2185C356.265 73.7331 356.088 74.5106 356.088 75.551ZM369.02 80.0998C367.741 80.0998 366.704 79.6986 365.907 78.8962C365.116 78.0883 364.72 77.0147 364.72 75.6755V75.4265C364.72 74.53 364.891 73.7304 365.235 73.0276C365.583 72.3192 366.07 71.7686 366.696 71.3757C367.321 70.9828 368.018 70.7864 368.787 70.7864C370.01 70.7864 370.954 71.1765 371.618 71.9568C372.287 72.737 372.622 73.841 372.622 75.2688V76.0823H366.754C366.815 76.8238 367.061 77.4104 367.492 77.842C367.93 78.2737 368.477 78.4895 369.136 78.4895C370.06 78.4895 370.813 78.116 371.394 77.3689L372.481 78.4065C372.121 78.9433 371.64 79.3611 371.037 79.6599C370.439 79.9532 369.767 80.0998 369.02 80.0998ZM368.779 72.405C368.226 72.405 367.777 72.5987 367.434 72.9861C367.097 73.3734 366.881 73.913 366.787 74.6047H370.63V74.4553C370.586 73.7802 370.406 73.2711 370.091 72.928C369.775 72.5793 369.338 72.405 368.779 72.405ZM378.44 73.9075L380.15 70.9524H382.391L379.644 75.3767L382.483 79.9338H380.258L378.465 76.8625L376.68 79.9338H374.439L377.278 75.3767L374.539 70.9524H376.763L378.44 73.9075ZM386.043 77.8088C386.419 77.8088 386.709 77.9167 386.914 78.1326C387.119 78.3428 387.221 78.6085 387.221 78.9294C387.221 79.2449 387.119 79.5077 386.914 79.718C386.709 79.9228 386.419 80.0251 386.043 80.0251C385.683 80.0251 385.398 79.9228 385.188 79.718C384.977 79.5132 384.872 79.2504 384.872 78.9294C384.872 78.6085 384.975 78.3428 385.179 78.1326C385.384 77.9167 385.672 77.8088 386.043 77.8088ZM393.081 68.7693V70.9524H394.666V72.4465H393.081V77.4602C393.081 77.8033 393.147 78.0523 393.28 78.2073C393.418 78.3567 393.662 78.4314 394.01 78.4314C394.243 78.4314 394.478 78.4037 394.716 78.3484V79.9089C394.257 80.0362 393.814 80.0998 393.388 80.0998C391.838 80.0998 391.064 79.2449 391.064 77.5349V72.4465H389.586V70.9524H391.064V68.7693H393.081ZM402.269 77.4934C402.269 77.1337 402.119 76.8598 401.82 76.6716C401.527 76.4835 401.037 76.3174 400.351 76.1736C399.665 76.0297 399.092 75.8471 398.633 75.6257C397.626 75.1387 397.122 74.4332 397.122 73.509C397.122 72.7343 397.449 72.0868 398.102 71.5666C398.755 71.0465 399.585 70.7864 400.592 70.7864C401.666 70.7864 402.532 71.052 403.19 71.5832C403.854 72.1145 404.186 72.8035 404.186 73.6501H402.169C402.169 73.2628 402.025 72.9418 401.737 72.6872C401.45 72.4271 401.068 72.2971 400.592 72.2971C400.149 72.2971 399.787 72.3995 399.505 72.6042C399.228 72.809 399.089 73.0829 399.089 73.426C399.089 73.7359 399.22 73.9766 399.48 74.1482C399.74 74.3197 400.265 74.494 401.057 74.6711C401.848 74.8427 402.468 75.0502 402.916 75.2937C403.37 75.5316 403.705 75.8194 403.921 76.157C404.142 76.4945 404.253 76.904 404.253 77.3855C404.253 78.1934 403.918 78.8492 403.248 79.3528C402.579 79.8508 401.701 80.0998 400.617 80.0998C399.881 80.0998 399.225 79.967 398.65 79.7014C398.074 79.4358 397.626 79.0705 397.305 78.6057C396.984 78.1409 396.823 77.64 396.823 77.1033H398.782C398.81 77.5792 398.99 77.9472 399.322 78.2073C399.654 78.4618 400.094 78.5891 400.642 78.5891C401.173 78.5891 401.577 78.4895 401.854 78.2903C402.13 78.0855 402.269 77.8199 402.269 77.4934Z" fill="#DFDFDF"/>
<g clip-path="url(#clip0)">
<path d="M306.425 74.3462V84.7805H327.774V63.9119H306.425V74.3462ZM323.629 73.5115C324.14 73.6274 324.605 73.8889 324.964 74.2627C325.162 74.4641 325.334 74.6884 325.477 74.9305C325.477 74.9572 324.555 75.5666 323.993 75.9072C323.972 75.9205 323.89 75.8337 323.8 75.7018C323.697 75.5288 323.551 75.384 323.376 75.281C323.201 75.1779 323.002 75.12 322.797 75.1125C322.15 75.0691 321.733 75.4013 321.737 75.9472C321.731 76.0832 321.763 76.218 321.829 76.3379C321.971 76.6267 322.235 76.7987 323.065 77.1493C324.594 77.792 325.248 78.2161 325.654 78.8188C326.109 79.4866 326.209 80.5651 325.902 81.3631C325.561 82.2312 324.724 82.8205 323.54 83.0159C323 83.0764 322.453 83.0708 321.914 82.9992C321.091 82.8687 320.332 82.4857 319.747 81.9057C319.55 81.6936 319.168 81.141 319.192 81.101C319.254 81.0557 319.32 81.015 319.388 80.9791L320.174 80.5383L320.787 80.1911L320.915 80.3764C321.131 80.6787 321.406 80.9363 321.725 81.1343C322.408 81.4849 323.34 81.4365 323.801 81.0308C323.956 80.8822 324.053 80.6852 324.074 80.4741C324.096 80.263 324.041 80.0512 323.919 79.8756C323.748 79.6435 323.407 79.4482 322.452 79.0408C321.351 78.5767 320.876 78.2895 320.442 77.8321C320.171 77.5302 319.971 77.1741 319.856 76.7887C319.77 76.3483 319.758 75.8974 319.819 75.4531C320.046 74.413 320.843 73.6868 322.008 73.4714C322.548 73.4061 323.094 73.4208 323.629 73.5148V73.5115ZM318.618 74.3863V75.241H315.846V82.9591H313.88V75.2394H311.102V74.4046C311.094 74.1173 311.102 73.8297 311.126 73.5432C311.136 73.5298 312.833 73.5231 314.883 73.5265H318.608L318.618 74.3863Z" fill="#007ACC"/>
</g>
<ellipse cx="553.11" cy="74.3612" rx="2.18608" ry="2.13695" fill="#8A8A8A"/>
<ellipse cx="545.241" cy="74.3612" rx="2.18608" ry="2.13695" fill="#8A8A8A"/>
<ellipse cx="536.496" cy="74.3612" rx="2.18608" ry="2.13695" fill="#8A8A8A"/>
<rect x="320.074" y="103.851" width="61.2103" height="3.41912" rx="1.70956" fill="#A26BAD"/>
<rect x="388.28" y="103.851" width="26.233" height="3.41912" rx="1.70956" fill="#A3D8F4"/>
<rect x="421.508" y="103.851" width="41.9728" height="3.41912" rx="1.70956" fill="#B678A2"/>
<rect x="445.992" y="160.267" width="49.8427" height="3.41912" rx="1.70956" fill="#DB9469"/>
<rect x="501.956" y="160.267" width="39.3495" height="3.41912" rx="1.70956" fill="#FFF8CD"/>
<rect x="382.159" y="120.947" width="49.8427" height="3.41912" rx="1.70956" fill="#A3D8F4"/>
<rect x="478.346" y="120.947" width="73.4524" height="3.41912" rx="1.70956" fill="#DB9469"/>
<rect x="469.602" y="103.851" width="61.2103" height="3.41912" rx="1.70956" fill="#DB9469"/>
<rect x="320.074" y="120.947" width="58.587" height="3.41912" rx="1.70956" fill="#A26BAD"/>
<rect x="436.374" y="120.947" width="36.7262" height="3.41912" rx="1.70956" fill="#B678A2"/>
<g filter="url(#filter1_d)">
<rect x="49" y="138.042" width="431.97" height="298.318" fill="#1F2430"/>
<rect x="49.5" y="138.542" width="430.97" height="297.318" stroke="#463B49"/>
</g>
<path d="M99.4996 165.351L97.4829 165.389L97.3134 156.409L99.3301 156.371L99.4996 165.351ZM97.1449 154.079C97.139 153.769 97.231 153.51 97.4208 153.302C97.6161 153.093 97.8963 152.986 98.2615 152.979C98.6267 152.972 98.9108 153.069 99.1138 153.27C99.3169 153.471 99.4213 153.726 99.4272 154.036C99.4329 154.34 99.3381 154.597 99.1428 154.805C98.9474 155.008 98.6671 155.113 98.3019 155.12C97.9367 155.127 97.6527 155.033 97.4497 154.837C97.2522 154.636 97.1506 154.383 97.1449 154.079ZM104.425 156.275L104.503 157.311C105.151 156.496 106.015 156.079 107.094 156.058C108.964 156.023 109.936 157.076 110.01 159.216L110.122 165.15L108.105 165.188L107.995 159.37C107.984 158.801 107.852 158.382 107.598 158.116C107.349 157.844 106.945 157.713 106.387 157.724C105.573 157.739 104.974 158.118 104.59 158.862L104.711 165.252L102.694 165.29L102.524 156.311L104.425 156.275ZM112.74 160.543C112.714 159.16 113.014 158.044 113.64 157.197C114.266 156.344 115.119 155.907 116.197 155.886C117.149 155.868 117.924 156.186 118.523 156.839L118.437 152.241L120.453 152.203L120.694 164.951L118.868 164.985L118.751 164.057C118.162 164.799 117.364 165.18 116.357 165.199C115.305 165.218 114.445 164.811 113.776 163.977C113.113 163.143 112.768 161.998 112.74 160.543ZM114.76 160.679C114.778 161.592 114.965 162.302 115.324 162.81C115.687 163.313 116.193 163.558 116.84 163.546C117.665 163.53 118.261 163.151 118.629 162.408L118.556 158.573C118.172 157.861 117.568 157.513 116.743 157.528C116.09 157.541 115.592 157.81 115.247 158.337C114.903 158.858 114.741 159.639 114.76 160.679ZM127.775 164.983C126.497 165.007 125.452 164.626 124.641 163.838C123.834 163.046 123.418 161.98 123.393 160.641L123.388 160.392C123.371 159.495 123.528 158.693 123.858 157.983C124.193 157.269 124.669 156.709 125.287 156.304C125.905 155.9 126.598 155.69 127.367 155.676C128.59 155.653 129.541 156.025 130.219 156.792C130.904 157.56 131.259 158.657 131.286 160.085L131.302 160.898L125.434 161.009C125.509 161.749 125.766 162.331 126.206 162.754C126.651 163.178 127.203 163.383 127.861 163.371C128.785 163.353 129.531 162.966 130.098 162.208L131.204 163.225C130.855 163.768 130.381 164.195 129.784 164.505C129.192 164.81 128.522 164.969 127.775 164.983ZM127.39 157.294C126.836 157.305 126.392 157.507 126.056 157.9C125.726 158.294 125.52 158.838 125.439 159.531L129.282 159.458L129.279 159.309C129.222 158.635 129.033 158.129 128.711 157.792C128.389 157.45 127.948 157.284 127.39 157.294ZM137.077 158.614L138.731 155.627L140.972 155.585L138.308 160.06L141.233 164.563L139.009 164.605L137.158 161.568L135.432 164.672L133.191 164.715L135.943 160.105L133.121 155.733L135.345 155.691L137.077 158.614ZM144.752 162.371C145.128 162.364 145.421 162.466 145.63 162.678C145.838 162.885 145.946 163.148 145.952 163.469C145.958 163.785 145.86 164.049 145.66 164.264C145.459 164.472 145.17 164.58 144.794 164.587C144.434 164.594 144.147 164.497 143.933 164.296C143.719 164.095 143.609 163.835 143.603 163.514C143.597 163.193 143.694 162.925 143.895 162.711C144.096 162.491 144.381 162.378 144.752 162.371ZM151.236 155.391L151.421 165.168C151.438 166.086 151.222 166.79 150.772 167.28C150.327 167.776 149.665 168.032 148.785 168.048C148.415 168.055 148.057 168.015 147.712 167.928L147.682 166.334C147.893 166.38 148.131 166.4 148.397 166.395C149.067 166.383 149.403 166.011 149.405 165.28L149.22 155.429L151.236 155.391ZM149.001 153.1C148.995 152.79 149.087 152.531 149.277 152.323C149.472 152.115 149.753 152.007 150.118 152C150.483 151.993 150.767 152.09 150.97 152.291C151.173 152.492 151.278 152.747 151.284 153.057C151.289 153.362 151.194 153.618 150.999 153.826C150.804 154.029 150.523 154.134 150.158 154.141C149.793 154.148 149.509 154.054 149.306 153.858C149.109 153.657 149.007 153.405 149.001 153.1ZM159.575 161.776C159.568 161.416 159.414 161.145 159.111 160.963C158.815 160.78 158.322 160.623 157.633 160.492C156.944 160.362 156.368 160.19 155.905 159.977C154.889 159.509 154.372 158.813 154.354 157.889C154.34 157.115 154.654 156.461 155.297 155.929C155.94 155.396 156.765 155.121 157.772 155.102C158.845 155.081 159.716 155.331 160.385 155.849C161.059 156.368 161.404 157.051 161.42 157.897L159.403 157.935C159.396 157.548 159.246 157.23 158.953 156.981C158.661 156.726 158.276 156.603 157.8 156.612C157.358 156.62 156.997 156.73 156.719 156.94C156.446 157.15 156.313 157.426 156.32 157.769C156.325 158.079 156.46 158.317 156.723 158.484C156.987 158.65 157.516 158.815 158.31 158.977C159.104 159.134 159.728 159.329 160.181 159.564C160.639 159.794 160.979 160.075 161.201 160.408C161.429 160.742 161.547 161.149 161.557 161.631C161.572 162.438 161.249 163.1 160.589 163.616C159.929 164.127 159.057 164.393 157.973 164.413C157.237 164.427 156.579 164.306 155.998 164.052C155.418 163.797 154.963 163.44 154.633 162.982C154.303 162.523 154.133 162.025 154.123 161.489L156.082 161.452C156.119 161.927 156.305 162.291 156.642 162.545C156.979 162.793 157.421 162.912 157.969 162.902C158.5 162.892 158.902 162.785 159.175 162.58C159.448 162.37 159.581 162.102 159.575 161.776Z" fill="#DFDFDF"/>
<path d="M84.3445 156.069C84.1139 155.994 83.8834 155.923 83.6528 155.856C83.6912 155.702 83.7254 155.547 83.7595 155.393C84.2847 152.905 83.9389 150.906 82.7732 150.247C81.6503 149.616 79.8186 150.272 77.9656 151.849C77.782 152.004 77.6027 152.166 77.4319 152.329C77.3166 152.221 77.197 152.112 77.0775 152.008C75.1348 150.322 73.1878 149.612 72.0222 150.276C70.9035 150.91 70.5705 152.793 71.0401 155.147C71.0871 155.38 71.1383 155.61 71.1981 155.844C70.9249 155.919 70.6559 156.002 70.404 156.09C68.1239 156.862 66.4886 158.081 66.4886 159.341C66.4886 160.643 68.2307 161.95 70.6004 162.743C70.7925 162.805 70.9846 162.868 71.181 162.922C71.117 163.173 71.0615 163.419 71.0102 163.673C70.5619 165.99 70.912 167.826 72.0307 168.457C73.1835 169.108 75.122 168.44 77.0092 166.825C77.1586 166.695 77.308 166.562 77.4575 166.42C77.6453 166.599 77.8418 166.77 78.0382 166.937C79.8656 168.473 81.6717 169.095 82.7861 168.465C83.9389 167.814 84.3146 165.84 83.8279 163.436C83.7894 163.252 83.7467 163.064 83.6998 162.872C83.8364 162.835 83.9688 162.793 84.1011 162.751C86.5647 161.954 88.3495 160.664 88.3495 159.341C88.3495 158.076 86.6672 156.849 84.3445 156.069ZM78.5676 152.525C80.1559 151.173 81.6375 150.643 82.3121 151.023C83.0337 151.428 83.3112 153.064 82.8586 155.213C82.8288 155.355 82.7989 155.493 82.7604 155.631C81.8126 155.422 80.8519 155.272 79.8869 155.188C79.3319 154.412 78.7256 153.669 78.068 152.972C78.2346 152.818 78.3968 152.672 78.5676 152.525ZM73.6276 161.507C73.8453 161.87 74.0673 162.234 74.3022 162.588C73.6361 162.517 72.9743 162.413 72.321 162.275C72.5089 161.674 72.7437 161.052 73.017 160.418C73.2134 160.785 73.4141 161.148 73.6276 161.507ZM72.3339 156.486C72.9487 156.353 73.602 156.244 74.2808 156.161C74.0545 156.507 73.8325 156.862 73.6233 157.221C73.4141 157.576 73.2091 157.939 73.017 158.306C72.748 157.684 72.5217 157.075 72.3339 156.486ZM73.5037 159.362C73.7855 158.786 74.093 158.223 74.4175 157.667C74.742 157.112 75.0921 156.574 75.4593 156.044C76.0997 155.998 76.753 155.973 77.4191 155.973C78.0851 155.973 78.7427 155.998 79.3788 156.044C79.7418 156.57 80.0876 157.108 80.4164 157.659C80.7451 158.21 81.0526 158.774 81.3429 159.345C81.0568 159.921 80.7494 160.489 80.4206 161.048C80.0962 161.603 79.7503 162.142 79.3874 162.676C78.7512 162.722 78.0894 162.743 77.4191 162.743C76.7487 162.743 76.0997 162.722 75.4721 162.684C75.1006 162.154 74.7505 161.612 74.4217 161.057C74.093 160.501 73.7898 159.938 73.5037 159.362ZM81.2148 161.499C81.4326 161.132 81.6375 160.76 81.8382 160.385C82.1114 160.99 82.3505 161.603 82.5598 162.234C81.898 162.38 81.2276 162.492 80.553 162.567C80.7836 162.217 81.0013 161.858 81.2148 161.499ZM81.8296 158.306C81.629 157.939 81.424 157.571 81.2105 157.213C81.0013 156.858 80.7836 156.507 80.5573 156.161C81.2447 156.244 81.9022 156.357 82.5171 156.495C82.3207 157.112 82.0901 157.713 81.8296 158.306ZM77.4276 153.611C77.8759 154.086 78.2986 154.587 78.6914 155.105C77.846 155.067 76.9964 155.067 76.151 155.105C76.5694 154.566 77.0006 154.066 77.4276 153.611ZM72.4748 151.052C73.1921 150.643 74.7847 151.227 76.4626 152.68C76.5694 152.772 76.6761 152.872 76.7871 152.972C76.1253 153.669 75.5148 154.412 74.9554 155.188C73.9905 155.272 73.0341 155.418 72.0862 155.622C72.0307 155.409 71.9837 155.192 71.9368 154.975C71.5354 152.955 71.8001 151.432 72.4748 151.052ZM71.4287 162.054C71.2494 162.004 71.0743 161.95 70.8992 161.891C69.9898 161.612 68.9565 161.169 68.2093 160.589C67.7781 160.297 67.4878 159.846 67.4066 159.341C67.4066 158.577 68.7559 157.601 70.7028 156.937C70.9462 156.854 71.1938 156.778 71.4415 156.708C71.7318 157.613 72.0819 158.502 72.4876 159.362C72.0777 160.234 71.7233 161.136 71.4287 162.054ZM76.4071 166.144C75.7026 166.775 74.8871 167.275 73.999 167.618C73.5251 167.839 72.9786 167.86 72.4918 167.672C71.813 167.288 71.5312 165.815 71.9154 163.832C71.9624 163.598 72.0136 163.365 72.0734 163.135C73.0298 163.335 73.9948 163.473 74.9725 163.544C75.5361 164.325 76.1552 165.072 76.817 165.773C76.6804 165.902 76.5438 166.027 76.4071 166.144ZM77.4532 165.13C77.0177 164.671 76.5822 164.162 76.1595 163.615C76.5694 163.632 76.9921 163.64 77.4191 163.64C77.8588 163.64 78.2901 163.632 78.717 163.611C78.3242 164.141 77.9015 164.646 77.4532 165.13ZM83.0337 166.382C82.9953 166.891 82.7391 167.367 82.3292 167.689C81.6503 168.073 80.2029 167.572 78.6402 166.261C78.4609 166.111 78.2815 165.948 78.0979 165.781C78.7512 165.076 79.3532 164.329 79.8997 163.544C80.8775 163.465 81.851 163.319 82.8117 163.106C82.8544 163.277 82.8928 163.448 82.927 163.615C83.1362 164.517 83.1703 165.456 83.0337 166.382ZM83.8108 161.895C83.6912 161.933 83.5717 161.971 83.4479 162.004C83.149 161.094 82.7818 160.205 82.3591 159.341C82.769 158.49 83.1148 157.613 83.4052 156.716C83.6272 156.778 83.8407 156.845 84.0456 156.912C86.0353 157.58 87.4315 158.573 87.4315 159.333C87.4315 160.151 85.9414 161.207 83.8108 161.895ZM77.4191 161.269C78.4993 161.269 79.3746 160.414 79.3746 159.358C79.3746 158.302 78.4993 157.446 77.4191 157.446C76.3388 157.446 75.4635 158.302 75.4635 159.358C75.4635 160.414 76.3388 161.269 77.4191 161.269Z" fill="#61DAFB"/>
<ellipse cx="459.546" cy="159.839" rx="2.18608" ry="2.13695" fill="#8A8A8A"/>
<ellipse cx="452.551" cy="159.839" rx="2.18608" ry="2.13695" fill="#8A8A8A"/>
<ellipse cx="445.555" cy="159.839" rx="2.18608" ry="2.13695" fill="#8A8A8A"/>
<rect x="81.354" y="195.312" width="55.0893" height="3.41912" rx="1.70956" fill="#B678A2"/>
<rect x="82.2285" y="212.408" width="54.2148" height="3.41912" rx="1.70956" fill="#A26BAD"/>
<rect x="170.546" y="242.325" width="54.2148" height="3.41912" rx="1.70956" fill="#69C9A2"/>
<rect x="230.882" y="242.325" width="66.4569" height="3.41912" rx="1.70956" fill="#FFF8CD"/>
<rect x="104.964" y="259.421" width="88.3177" height="3.41912" rx="1.70956" fill="#A3D8F4"/>
<rect x="82.2285" y="242.325" width="45.4705" height="3.41912" rx="1.70956" fill="#3A74A3"/>
<rect x="118.955" y="276.517" width="45.4705" height="3.41912" rx="1.70956" fill="#3A74A3"/>
<rect x="104.964" y="368.833" width="66.4569" height="3.41912" rx="1.70956" fill="#3A74A3"/>
<rect x="118.08" y="293.612" width="37.6006" height="3.41912" rx="1.70956" fill="#FFF8CD"/>
<rect x="129.448" y="310.708" width="37.6006" height="3.41912" rx="1.70956" fill="#3A74A3"/>
<rect x="173.169" y="310.708" width="30.6051" height="3.41912" rx="1.70956" fill="#DB9469"/>
<rect x="104.964" y="397.895" width="39.3495" height="3.41912" rx="1.70956" fill="#A26BAD"/>
<rect x="179.29" y="367.978" width="13.1165" height="3.41912" rx="1.70956" fill="#A3D8F4"/>
<rect x="161.802" y="293.612" width="37.6006" height="3.41912" rx="1.70956" fill="#A26BAD"/>
<rect x="144.313" y="212.408" width="74.3268" height="3.41912" rx="1.70956" fill="#96DFF5"/>
<rect x="118.08" y="384.219" width="74.3268" height="3.41912" rx="1.70956" fill="#55BC92"/>
<rect x="143.439" y="195.312" width="58.587" height="3.41912" rx="1.70956" fill="#A3D8F4"/>
<rect x="261.487" y="212.408" width="58.587" height="3.41912" rx="1.70956" fill="#DB9469" fill-opacity="0.9"/>
<rect x="265.859" y="195.312" width="58.587" height="3.41912" rx="1.70956" fill="#DB9469" fill-opacity="0.9"/>
<rect x="208.147" y="195.312" width="50.7171" height="3.41912" rx="1.70956" fill="#A26BAD"/>
<rect x="225.635" y="212.408" width="29.7307" height="3.41912" rx="1.70956" fill="#B678A2"/>
<rect x="134.694" y="242.325" width="29.7307" height="3.41912" rx="1.70956" fill="#A26BAD"/>
<rect x="199.402" y="259.421" width="20.112" height="3.41912" rx="1.70956" fill="#C4C4C4"/>
<rect x="150.434" y="397.895" width="19.2375" height="3.41912" rx="1.70956" fill="#FFF8CD"/>
<rect x="104.964" y="343.189" width="10.4932" height="3.41912" rx="1.70956" fill="#DB9469"/>
<rect x="118.955" y="327.803" width="10.4932" height="3.41912" rx="1.70956" fill="#C4C4C4"/>
<g filter="url(#filter2_d)">
<rect x="174.918" y="275.662" width="306.051" height="200.873" fill="#191A21"/>
<rect x="175.418" y="276.162" width="305.051" height="199.873" stroke="#463B49"/>
</g>
<path d="M200.594 298.859H204.312L202.453 294.73L200.594 298.859ZM202.453 288.216L192.313 291.57L193.865 303.998L202.453 308.411L211.041 303.998L212.593 291.57L202.453 288.216ZM208.806 303.623H206.435L205.157 300.675H199.76L198.481 303.623H196.105L202.453 290.448L208.806 303.623Z" fill="#239AFA"/>
<path d="M227.661 301.551C227.572 301.38 227.495 301.1 227.428 300.713C226.786 301.382 226 301.717 225.071 301.717C224.169 301.717 223.433 301.46 222.863 300.945C222.293 300.431 222.008 299.794 222.008 299.036C222.008 298.079 222.362 297.345 223.07 296.836C223.784 296.322 224.802 296.064 226.125 296.064H227.362V295.475C227.362 295.01 227.232 294.639 226.972 294.363C226.712 294.08 226.316 293.939 225.785 293.939C225.325 293.939 224.949 294.056 224.656 294.288C224.362 294.515 224.216 294.805 224.216 295.16H222.199C222.199 294.667 222.362 294.208 222.688 293.782C223.015 293.35 223.458 293.012 224.017 292.769C224.581 292.525 225.209 292.404 225.901 292.404C226.952 292.404 227.791 292.669 228.416 293.201C229.041 293.726 229.362 294.468 229.379 295.425V299.476C229.379 300.284 229.492 300.929 229.719 301.41V301.551H227.661ZM225.444 300.098C225.843 300.098 226.216 300.002 226.565 299.808C226.919 299.614 227.185 299.354 227.362 299.028V297.334H226.274C225.527 297.334 224.966 297.464 224.589 297.724C224.213 297.985 224.025 298.353 224.025 298.828C224.025 299.216 224.152 299.526 224.407 299.758C224.667 299.985 225.013 300.098 225.444 300.098ZM240.376 297.152C240.376 298.541 240.061 299.65 239.43 300.48C238.799 301.305 237.953 301.717 236.89 301.717C235.905 301.717 235.117 301.393 234.524 300.746V305.004H232.507V292.57H234.367L234.45 293.483C235.042 292.763 235.847 292.404 236.865 292.404C237.961 292.404 238.819 292.813 239.438 293.632C240.064 294.446 240.376 295.577 240.376 297.027V297.152ZM238.368 296.977C238.368 296.081 238.188 295.37 237.828 294.844C237.474 294.318 236.965 294.056 236.301 294.056C235.476 294.056 234.884 294.396 234.524 295.077V299.061C234.89 299.758 235.487 300.107 236.317 300.107C236.959 300.107 237.46 299.849 237.82 299.335C238.185 298.815 238.368 298.029 238.368 296.977ZM250.976 297.152C250.976 298.541 250.66 299.65 250.029 300.48C249.398 301.305 248.552 301.717 247.489 301.717C246.504 301.717 245.716 301.393 245.123 300.746V305.004H243.106V292.57H244.966L245.049 293.483C245.641 292.763 246.446 292.404 247.464 292.404C248.56 292.404 249.418 292.813 250.038 293.632C250.663 294.446 250.976 295.577 250.976 297.027V297.152ZM248.967 296.977C248.967 296.081 248.787 295.37 248.427 294.844C248.073 294.318 247.564 294.056 246.9 294.056C246.075 294.056 245.483 294.396 245.123 295.077V299.061C245.489 299.758 246.086 300.107 246.916 300.107C247.558 300.107 248.059 299.849 248.419 299.335C248.784 298.815 248.967 298.029 248.967 296.977ZM254.967 299.426C255.344 299.426 255.634 299.534 255.839 299.75C256.044 299.96 256.146 300.226 256.146 300.547C256.146 300.862 256.044 301.125 255.839 301.335C255.634 301.54 255.344 301.642 254.967 301.642C254.608 301.642 254.323 301.54 254.112 301.335C253.902 301.131 253.797 300.868 253.797 300.547C253.797 300.226 253.899 299.96 254.104 299.75C254.309 299.534 254.596 299.426 254.967 299.426ZM263.167 300.107C263.671 300.107 264.089 299.96 264.421 299.667C264.753 299.374 264.93 299.011 264.952 298.579H266.853C266.831 299.138 266.656 299.661 266.33 300.148C266.004 300.63 265.561 301.012 265.002 301.294C264.443 301.576 263.84 301.717 263.192 301.717C261.936 301.717 260.94 301.31 260.204 300.497C259.468 299.683 259.1 298.56 259.1 297.127V296.919C259.1 295.552 259.465 294.459 260.196 293.64C260.926 292.816 261.922 292.404 263.184 292.404C264.252 292.404 265.121 292.716 265.79 293.342C266.466 293.961 266.82 294.778 266.853 295.79H264.952C264.93 295.276 264.753 294.852 264.421 294.52C264.094 294.188 263.677 294.022 263.167 294.022C262.514 294.022 262.011 294.26 261.657 294.736C261.302 295.207 261.123 295.923 261.117 296.886V297.21C261.117 298.184 261.291 298.911 261.64 299.393C261.994 299.869 262.503 300.107 263.167 300.107ZM269.018 296.977C269.018 296.098 269.193 295.306 269.541 294.603C269.89 293.895 270.38 293.353 271.011 292.976C271.642 292.595 272.366 292.404 273.185 292.404C274.397 292.404 275.38 292.794 276.132 293.574C276.89 294.354 277.3 295.389 277.361 296.679L277.369 297.152C277.369 298.037 277.197 298.828 276.854 299.526C276.517 300.223 276.03 300.763 275.393 301.144C274.763 301.526 274.032 301.717 273.202 301.717C271.935 301.717 270.919 301.297 270.156 300.455C269.398 299.609 269.018 298.483 269.018 297.077V296.977ZM271.036 297.152C271.036 298.076 271.226 298.801 271.608 299.327C271.99 299.847 272.521 300.107 273.202 300.107C273.883 300.107 274.411 299.841 274.787 299.31C275.169 298.779 275.36 298.001 275.36 296.977C275.36 296.07 275.164 295.35 274.771 294.819C274.384 294.288 273.855 294.022 273.185 294.022C272.527 294.022 272.004 294.285 271.617 294.811C271.229 295.331 271.036 296.111 271.036 297.152ZM281.992 292.57L282.05 293.508C282.681 292.772 283.544 292.404 284.64 292.404C285.84 292.404 286.662 292.863 287.105 293.782C287.758 292.863 288.676 292.404 289.861 292.404C290.851 292.404 291.587 292.678 292.069 293.225C292.556 293.773 292.805 294.581 292.816 295.649V301.551H290.799V295.707C290.799 295.137 290.674 294.72 290.425 294.454C290.176 294.188 289.764 294.056 289.188 294.056C288.729 294.056 288.353 294.18 288.059 294.429C287.772 294.673 287.57 294.994 287.453 295.392L287.462 301.551H285.445V295.641C285.417 294.584 284.877 294.056 283.826 294.056C283.018 294.056 282.445 294.385 282.108 295.043V301.551H280.091V292.57H281.992ZM303.772 297.152C303.772 298.541 303.456 299.65 302.826 300.48C302.195 301.305 301.348 301.717 300.286 301.717C299.3 301.717 298.512 301.393 297.92 300.746V305.004H295.903V292.57H297.762L297.845 293.483C298.437 292.763 299.242 292.404 300.261 292.404C301.356 292.404 302.214 292.813 302.834 293.632C303.459 294.446 303.772 295.577 303.772 297.027V297.152ZM301.763 296.977C301.763 296.081 301.583 295.37 301.223 294.844C300.869 294.318 300.36 294.056 299.696 294.056C298.872 294.056 298.279 294.396 297.92 295.077V299.061C298.285 299.758 298.883 300.107 299.713 300.107C300.355 300.107 300.855 299.849 301.215 299.335C301.58 298.815 301.763 298.029 301.763 296.977ZM306.128 296.977C306.128 296.098 306.303 295.306 306.651 294.603C307 293.895 307.49 293.353 308.12 292.976C308.751 292.595 309.476 292.404 310.295 292.404C311.507 292.404 312.489 292.794 313.242 293.574C314 294.354 314.41 295.389 314.471 296.679L314.479 297.152C314.479 298.037 314.307 298.828 313.964 299.526C313.627 300.223 313.14 300.763 312.503 301.144C311.872 301.526 311.142 301.717 310.312 301.717C309.045 301.717 308.029 301.297 307.265 300.455C306.507 299.609 306.128 298.483 306.128 297.077V296.977ZM308.145 297.152C308.145 298.076 308.336 298.801 308.718 299.327C309.1 299.847 309.631 300.107 310.312 300.107C310.993 300.107 311.521 299.841 311.897 299.31C312.279 298.779 312.47 298.001 312.47 296.977C312.47 296.07 312.274 295.35 311.881 294.819C311.493 294.288 310.965 294.022 310.295 294.022C309.637 294.022 309.114 294.285 308.726 294.811C308.339 295.331 308.145 296.111 308.145 297.152ZM319.076 292.57L319.135 293.607C319.799 292.805 320.67 292.404 321.749 292.404C323.62 292.404 324.572 293.474 324.605 295.616V301.551H322.588V295.732C322.588 295.162 322.463 294.742 322.214 294.471C321.971 294.194 321.569 294.056 321.011 294.056C320.197 294.056 319.591 294.424 319.193 295.16V301.551H317.176V292.57H319.076ZM331.643 301.717C330.365 301.717 329.327 301.316 328.53 300.514C327.739 299.706 327.343 298.632 327.343 297.293V297.044C327.343 296.147 327.515 295.348 327.858 294.645C328.206 293.937 328.693 293.386 329.319 292.993C329.944 292.6 330.641 292.404 331.41 292.404C332.633 292.404 333.577 292.794 334.241 293.574C334.911 294.354 335.245 295.458 335.245 296.886V297.7H329.377C329.438 298.441 329.684 299.028 330.116 299.459C330.553 299.891 331.101 300.107 331.759 300.107C332.683 300.107 333.436 299.733 334.017 298.986L335.104 300.024C334.745 300.561 334.263 300.978 333.66 301.277C333.062 301.57 332.39 301.717 331.643 301.717ZM331.402 294.022C330.849 294.022 330.401 294.216 330.057 294.603C329.72 294.991 329.504 295.53 329.41 296.222H333.253V296.073C333.209 295.397 333.029 294.888 332.714 294.545C332.398 294.197 331.961 294.022 331.402 294.022ZM339.71 292.57L339.768 293.607C340.432 292.805 341.304 292.404 342.383 292.404C344.254 292.404 345.205 293.474 345.239 295.616V301.551H343.221V295.732C343.221 295.162 343.097 294.742 342.848 294.471C342.604 294.194 342.203 294.056 341.644 294.056C340.831 294.056 340.225 294.424 339.826 295.16V301.551H337.809V292.57H339.71ZM350.849 290.387V292.57H352.434V294.064H350.849V299.077C350.849 299.421 350.915 299.67 351.048 299.825C351.186 299.974 351.43 300.049 351.779 300.049C352.011 300.049 352.246 300.021 352.484 299.966V301.526C352.025 301.653 351.582 301.717 351.156 301.717C349.607 301.717 348.832 300.862 348.832 299.152V294.064H347.354V292.57H348.832V290.387H350.849ZM356.26 299.426C356.636 299.426 356.927 299.534 357.132 299.75C357.336 299.96 357.439 300.226 357.439 300.547C357.439 300.862 357.336 301.125 357.132 301.335C356.927 301.54 356.636 301.642 356.26 301.642C355.9 301.642 355.615 301.54 355.405 301.335C355.195 301.131 355.09 300.868 355.09 300.547C355.09 300.226 355.192 299.96 355.397 299.75C355.601 299.534 355.889 299.426 356.26 299.426ZM363.298 290.387V292.57H364.884V294.064H363.298V299.077C363.298 299.421 363.364 299.67 363.497 299.825C363.636 299.974 363.879 300.049 364.228 300.049C364.46 300.049 364.695 300.021 364.933 299.966V301.526C364.474 301.653 364.031 301.717 363.605 301.717C362.056 301.717 361.281 300.862 361.281 299.152V294.064H359.803V292.57H361.281V290.387H363.298ZM372.486 299.111C372.486 298.751 372.337 298.477 372.038 298.289C371.745 298.101 371.255 297.935 370.569 297.791C369.882 297.647 369.31 297.464 368.85 297.243C367.843 296.756 367.34 296.05 367.34 295.126C367.34 294.352 367.666 293.704 368.319 293.184C368.972 292.664 369.802 292.404 370.809 292.404C371.883 292.404 372.749 292.669 373.407 293.201C374.071 293.732 374.404 294.421 374.404 295.267H372.386C372.386 294.88 372.243 294.559 371.955 294.305C371.667 294.044 371.285 293.914 370.809 293.914C370.367 293.914 370.004 294.017 369.722 294.222C369.445 294.426 369.307 294.7 369.307 295.043C369.307 295.353 369.437 295.594 369.697 295.765C369.957 295.937 370.483 296.111 371.274 296.288C372.065 296.46 372.685 296.667 373.133 296.911C373.587 297.149 373.922 297.437 374.138 297.774C374.359 298.112 374.47 298.521 374.47 299.003C374.47 299.811 374.135 300.466 373.466 300.97C372.796 301.468 371.919 301.717 370.834 301.717C370.098 301.717 369.442 301.584 368.867 301.319C368.291 301.053 367.843 300.688 367.522 300.223C367.201 299.758 367.041 299.257 367.041 298.721H369C369.027 299.196 369.207 299.564 369.539 299.825C369.871 300.079 370.311 300.206 370.859 300.206C371.39 300.206 371.794 300.107 372.071 299.908C372.348 299.703 372.486 299.437 372.486 299.111Z" fill="#DFDFDF"/>
<rect x="202.026" y="356.011" width="104.057" height="3.41912" rx="1.70956" fill="#69C9A2"/>
<rect x="271.98" y="324.384" width="83.9455" height="3.41912" rx="1.70956" fill="#A3D8F4"/>
<rect x="202.026" y="324.384" width="62.9592" height="3.41912" rx="1.70956" fill="#B678A2"/>
<rect x="218.64" y="373.961" width="62.9592" height="3.41912" rx="1.70956" fill="#A3D8F4"/>
<rect x="305.209" y="391.912" width="62.9592" height="3.41912" rx="1.70956" fill="#DB9469"/>
<rect x="218.64" y="409.862" width="62.9592" height="3.41912" rx="1.70956" fill="#A3D8F4"/>
<rect x="203.775" y="450.892" width="62.9592" height="3.41912" rx="1.70956" fill="#B678A2"/>
<rect x="309.581" y="450.892" width="62.9592" height="3.41912" rx="1.70956" fill="#A3D8F4"/>
<rect x="202.9" y="427.812" width="18.3631" height="3.41912" rx="1.70956" fill="#C4C4C4"/>
<rect x="218.64" y="391.912" width="78.6989" height="3.41912" rx="1.70956" fill="#A3D8F4"/>
<rect x="289.469" y="409.862" width="78.6989" height="3.41912" rx="1.70956" fill="#DB9469"/>
<rect x="290.343" y="373.107" width="56.8381" height="3.41912" rx="1.70956" fill="#DB9469"/>
<rect x="362.921" y="324.384" width="41.9728" height="3.41912" rx="1.70956" fill="#A26BAD"/>
<rect x="271.98" y="450.892" width="31.4796" height="3.41912" rx="1.70956" fill="#3A74A3"/>
<g filter="url(#filter3_d)">
<rect x="388.28" y="192.748" width="238.72" height="322.252" fill="#1F2430"/>
<rect x="388.78" y="193.248" width="237.72" height="321.252" stroke="#463B49"/>
</g>
<rect x="409.266" y="212.408" width="103.183" height="4.2739" rx="2.13695" fill="#818181"/>
<rect x="484.467" y="450.037" width="62.9592" height="3.41912" rx="1.70956" fill="#818181"/>
<rect x="484.467" y="472.261" width="83.0711" height="3.41912" rx="1.70956" fill="#818181"/>
<rect x="473.974" y="497.05" width="83.0711" height="3.41912" rx="1.70956" fill="#818181"/>
<path d="M609.511 211.126H606.014V205.142H600.767V211.126H597.269L603.39 218.107L609.511 211.126ZM597.269 220.101V222.096H609.511V220.101H597.269Z" fill="#818181"/>
<path d="M389.154 232.068H625.426V258.566H389.154V232.068Z" fill="#818181" fill-opacity="0.25"/>
<rect x="432.876" y="243.18" width="69.0802" height="4.2739" rx="2.13695" fill="#818181"/>
<path d="M419.397 249.156L409.23 249.032L417.506 239.391L419.397 249.156Z" fill="#9E9E9E"/>
<rect x="480.97" y="279.081" width="69.0802" height="4.2739" rx="2.13695" fill="#818181"/>
<g clip-path="url(#clip1)">
<path d="M443.485 281.749L446.013 286.516C446.21 286.887 446.492 287.195 446.831 287.409C447.169 287.623 447.553 287.736 447.944 287.736H461.909C462.556 287.736 462.959 286.964 462.633 286.35L460.104 281.582C459.907 281.211 459.625 280.903 459.287 280.69C458.948 280.476 458.564 280.363 458.174 280.363H444.208C443.562 280.363 443.159 281.135 443.485 281.749ZM458.174 279.134H446.721V277.291C446.721 276.273 447.472 275.448 448.397 275.448H453.984L456.218 272.991H461.805C462.731 272.991 463.481 273.816 463.481 274.834V285.51L461.069 280.963C460.471 279.835 459.361 279.134 458.174 279.134Z" fill="#9E9E9E"/>
</g>
<path d="M428.363 286.722L418.196 286.597L426.472 276.957L428.363 286.722Z" fill="#9E9E9E"/>
<rect x="498.299" y="308.998" width="69.0802" height="4.2739" rx="2.13695" fill="#818181"/>
<g clip-path="url(#clip2)">
<path d="M460.814 311.666L463.343 316.434C463.539 316.805 463.821 317.112 464.16 317.326C464.499 317.54 464.882 317.653 465.273 317.653H479.238C479.885 317.653 480.288 316.881 479.962 316.267L477.433 311.5C477.237 311.129 476.955 310.821 476.616 310.607C476.277 310.393 475.894 310.28 475.503 310.28H461.538C460.891 310.28 460.488 311.052 460.814 311.666ZM475.503 309.052H464.05V307.208C464.05 306.191 464.801 305.365 465.726 305.365H471.313L473.548 302.908H479.134C480.06 302.908 480.81 303.733 480.81 304.751V315.427L478.398 310.88C477.8 309.752 476.691 309.052 475.503 309.052Z" fill="#9E9E9E"/>
</g>
<path d="M445.692 316.639L435.526 316.514L443.801 306.874L445.692 316.639Z" fill="#9E9E9E"/>
<rect x="498.459" y="335.496" width="94.4387" height="3.41912" rx="1.70956" fill="#818181"/>
<rect x="498.459" y="358.575" width="88.3177" height="3.41912" rx="1.70956" fill="#818181"/>
<rect x="498.459" y="381.654" width="80.4478" height="3.41912" rx="1.70956" fill="#818181"/>
<rect x="498.459" y="404.733" width="94.4387" height="3.41912" rx="1.70956" fill="#818181"/>
<rect x="498.459" y="425.248" width="88.3177" height="3.41912" rx="1.70956" fill="#818181"/>
<g clip-path="url(#clip3)">
<path d="M481.398 340.9C481.39 340.918 481.383 340.932 481.398 340.9V340.9ZM487.525 338.285C487.03 338.285 486.542 338.424 486.098 338.691C485.953 338.333 485.803 338.021 485.779 337.786C485.749 337.513 485.717 337.351 485.751 337.026C485.786 336.702 485.941 336.242 485.938 336.209C485.936 336.176 485.904 336.01 485.587 336.007C485.269 336.004 484.996 336.083 484.965 336.185C484.909 336.371 484.865 336.563 484.834 336.759C484.778 337.11 484.2 338.366 483.873 339.022C483.765 338.766 483.674 338.541 483.654 338.36C483.625 338.087 483.593 337.925 483.627 337.6C483.662 337.276 483.816 336.816 483.814 336.783C483.812 336.75 483.78 336.584 483.463 336.581C483.146 336.578 482.872 336.657 482.84 336.759C482.808 336.861 482.774 337.101 482.71 337.333C482.646 337.564 481.877 339.656 481.675 340.2C481.572 340.476 481.483 340.698 481.419 340.849C481.41 340.873 481.402 340.888 481.397 340.9C481.405 340.885 481.41 340.87 481.41 340.876C481.355 341.005 481.323 341.077 481.323 341.077V341.08C481.282 341.176 481.235 341.263 481.213 341.263C481.198 341.263 481.166 341.011 481.22 340.665C481.336 339.938 481.609 338.808 481.606 338.769C481.604 338.748 481.658 338.553 481.427 338.448C481.203 338.348 481.122 338.514 481.102 338.514C481.082 338.514 481.068 338.574 481.068 338.574C481.068 338.574 481.316 337.3 480.591 337.3C480.138 337.3 479.509 337.907 479.199 338.457C479.005 338.586 478.584 338.865 478.142 339.163C477.972 339.277 477.797 339.394 477.633 339.505C477.62 339.49 477.611 339.475 477.598 339.46C476.718 338.312 475.093 337.501 475.162 335.959C475.186 335.397 475.346 333.922 478.287 332.131C480.697 330.664 482.624 331.067 482.956 331.963C483.433 333.24 481.925 335.617 479.423 335.959C478.469 336.089 477.967 335.638 477.842 335.47C477.711 335.292 477.692 335.283 477.643 335.316C477.561 335.37 477.613 335.527 477.643 335.62C477.716 335.857 478.024 336.278 478.547 336.488C479.007 336.672 480.126 336.774 481.478 336.134C482.998 335.418 484.18 333.426 483.833 331.758C483.48 330.063 481.18 329.507 479.006 330.451C477.71 331.013 476.308 331.896 475.3 333.047C474.103 334.418 473.911 335.611 473.99 336.11C474.27 337.88 476.267 339.034 477.066 339.887C477.026 339.914 476.989 339.938 476.955 339.962C476.554 340.206 475.032 341.179 474.651 342.207C474.221 343.373 474.723 344.208 475.052 344.323C476.08 344.671 477.132 344.043 477.697 343.012C478.263 341.982 478.194 340.635 477.933 340.022C477.931 340.013 477.926 340.007 477.924 339.998C478.027 339.923 478.133 339.848 478.238 339.773C478.442 339.626 478.642 339.49 478.816 339.373C478.718 339.698 478.646 340.088 478.61 340.653C478.565 341.314 478.789 342.171 479.079 342.507C479.207 342.655 479.362 342.658 479.458 342.658C479.797 342.658 479.95 342.315 480.119 341.906C480.328 341.408 480.513 340.828 480.513 340.828C480.513 340.828 480.281 342.396 480.913 342.396C481.144 342.396 481.376 342.033 481.479 341.846V341.849C481.479 341.849 481.484 341.837 481.496 341.813C481.521 341.768 481.533 341.741 481.533 341.741V341.732C481.627 341.537 481.831 341.089 482.138 340.35C482.536 339.394 482.917 338.201 482.917 338.201C482.954 338.463 483.005 338.722 483.07 338.976C483.139 339.262 483.284 339.574 483.399 339.878C483.306 340.034 483.249 340.124 483.249 340.124C483.25 340.127 483.25 340.129 483.252 340.13C483.178 340.251 483.094 340.38 483.008 340.506C482.694 340.963 482.32 341.486 482.271 341.636C482.212 341.813 482.226 341.945 482.339 342.048C482.423 342.126 482.571 342.138 482.725 342.123C483.008 342.099 483.207 342.015 483.303 341.961C483.48 341.883 483.647 341.776 483.8 341.642C484.107 341.366 484.294 340.969 484.277 340.446C484.267 340.157 484.191 339.869 484.097 339.599C484.124 339.55 484.154 339.499 484.181 339.448C484.668 338.58 485.044 337.627 485.044 337.627C485.081 337.889 485.132 338.148 485.196 338.402C485.255 338.645 485.371 338.913 485.477 339.174C485.019 339.628 484.737 340.154 484.638 340.499C484.456 341.14 484.599 341.428 484.867 341.494C484.987 341.524 485.16 341.455 485.287 341.389C485.477 341.312 485.656 341.199 485.818 341.055C486.126 340.779 486.423 340.391 486.403 339.865C486.396 339.628 486.342 339.391 486.271 339.162C486.657 338.964 487.158 338.856 487.798 338.946C489.167 339.141 489.435 340.187 489.383 340.623C489.332 341.058 489.044 341.302 488.948 341.374C488.852 341.446 488.823 341.473 488.83 341.527C488.842 341.605 488.887 341.602 488.968 341.584C489.081 341.56 489.686 341.23 489.713 340.421C489.752 339.4 488.948 338.276 487.524 338.285L487.525 338.285ZM476.97 342.634C476.517 343.238 475.883 343.466 475.61 343.274C475.317 343.066 475.433 342.177 475.991 341.533C476.33 341.143 476.768 340.782 477.058 340.56C477.125 340.511 477.221 340.439 477.339 340.352C477.358 340.337 477.368 340.331 477.368 340.331C477.39 340.313 477.415 340.298 477.439 340.28C477.643 341.194 477.447 341.999 476.97 342.633V342.634ZM480.274 339.887C480.117 340.359 479.785 341.561 479.583 341.498C479.411 341.444 479.305 340.527 479.549 339.626C479.672 339.172 479.932 338.631 480.087 338.421C480.336 338.081 480.609 337.973 480.672 338.108C480.759 338.285 480.372 339.593 480.274 339.887ZM483.004 341.48C482.938 341.522 482.876 341.549 482.847 341.528C482.824 341.513 482.874 341.456 482.874 341.456C482.874 341.456 483.215 341.008 483.351 340.804C483.429 340.683 483.52 340.542 483.619 340.386C483.619 340.401 483.621 340.416 483.621 340.434C483.618 340.972 483.195 341.335 483.003 341.48H483.004ZM485.109 340.894C485.059 340.852 485.067 340.71 485.232 340.272C485.296 340.1 485.443 339.812 485.699 339.535C485.728 339.64 485.744 339.75 485.746 339.86C485.743 340.536 485.347 340.789 485.109 340.894H485.109Z" fill="#BF4080"/>
</g>
<g clip-path="url(#clip4)">
<path d="M473.1 353.66L474.53 366.876L480.949 368.619L487.409 366.876L488.84 353.66H473.1ZM485.733 357.931H478.199L478.367 359.58H485.565L485.007 364.535L480.994 365.437V365.447H480.949L476.904 364.535L476.658 362.004H478.613L478.756 363.277L480.949 363.761L483.15 363.277L483.396 361.2H476.555L476.031 356.338H485.913L485.733 357.931V357.931Z" fill="#C82F25"/>
</g>
<g clip-path="url(#clip5)">
<path d="M480.499 384.623H483.176L481.838 381.564L480.499 384.623ZM481.838 376.739L474.537 379.224L475.654 388.429L481.838 391.698L488.021 388.429L489.138 379.224L481.838 376.739ZM486.412 388.152H484.704L483.784 385.968H479.898L478.978 388.152H477.267L481.838 378.392L486.412 388.152Z" fill="#239AFA"/>
</g>
<g clip-path="url(#clip6)">
<path d="M481.373 406.847H484.051L482.712 403.789L481.373 406.847ZM482.712 398.964L475.411 401.448L476.528 410.653L482.712 413.922L488.895 410.653L490.013 401.448L482.712 398.964ZM487.286 410.376H485.579L484.658 408.193H480.773L479.852 410.376H478.141L482.712 400.616L487.286 410.376Z" fill="#C82F25"/>
</g>
<g clip-path="url(#clip7)">
<path d="M481.373 427.362H484.051L482.712 424.303L481.373 427.362ZM482.712 419.478L475.411 421.963L476.528 431.168L482.712 434.437L488.895 431.168L490.013 421.963L482.712 419.478ZM487.286 430.891H485.579L484.658 428.707H480.773L479.852 430.891H478.141L482.712 421.131L487.286 430.891Z" fill="#239AFA"/>
</g>
<g clip-path="url(#clip8)">
<path d="M457.605 451.735V459.247H472.976V444.222H457.605V451.735ZM469.992 451.133C470.36 451.217 470.695 451.405 470.953 451.674C471.096 451.819 471.22 451.981 471.322 452.155C471.322 452.174 470.658 452.613 470.254 452.858C470.239 452.868 470.18 452.806 470.115 452.711C470.041 452.586 469.936 452.482 469.81 452.408C469.684 452.333 469.54 452.292 469.393 452.286C468.927 452.255 468.627 452.494 468.629 452.887C468.626 452.985 468.648 453.082 468.696 453.169C468.798 453.376 468.988 453.5 469.586 453.753C470.687 454.216 471.158 454.521 471.45 454.955C471.777 455.436 471.85 456.212 471.629 456.787C471.383 457.412 470.78 457.836 469.928 457.977C469.539 458.02 469.145 458.016 468.757 457.965C468.165 457.871 467.618 457.595 467.197 457.177C467.055 457.025 466.78 456.627 466.797 456.598C466.842 456.565 466.889 456.536 466.939 456.51L467.504 456.193L467.946 455.943L468.038 456.076C468.194 456.294 468.392 456.479 468.621 456.622C469.113 456.874 469.784 456.84 470.116 456.547C470.228 456.44 470.297 456.299 470.313 456.147C470.328 455.995 470.289 455.842 470.201 455.716C470.078 455.549 469.832 455.408 469.145 455.115C468.352 454.78 468.01 454.574 467.697 454.244C467.502 454.027 467.358 453.771 467.276 453.493C467.214 453.176 467.205 452.851 467.248 452.531C467.412 451.783 467.986 451.26 468.825 451.105C469.213 451.058 469.607 451.068 469.992 451.136V451.133ZM466.384 451.763V452.379H464.388V457.936H462.973V452.378H460.972V451.777C460.967 451.57 460.973 451.363 460.989 451.156C460.997 451.147 462.219 451.142 463.695 451.144H466.377L466.384 451.763Z" fill="#007ACC"/>
</g>
<g clip-path="url(#clip9)">
<path d="M457.605 473.959V481.471H472.976V466.446H457.605V473.959ZM469.992 473.358C470.36 473.441 470.695 473.629 470.953 473.899C471.096 474.044 471.22 474.205 471.322 474.379C471.322 474.399 470.658 474.837 470.254 475.083C470.239 475.092 470.18 475.03 470.115 474.935C470.041 474.81 469.936 474.706 469.81 474.632C469.684 474.558 469.54 474.516 469.393 474.51C468.927 474.479 468.627 474.718 468.629 475.112C468.626 475.209 468.648 475.306 468.696 475.393C468.798 475.601 468.988 475.725 469.586 475.977C470.687 476.44 471.158 476.745 471.45 477.179C471.777 477.66 471.85 478.436 471.629 479.011C471.383 479.636 470.78 480.06 469.928 480.201C469.539 480.244 469.145 480.24 468.757 480.189C468.165 480.095 467.618 479.819 467.197 479.402C467.055 479.249 466.78 478.851 466.797 478.822C466.842 478.79 466.889 478.76 466.939 478.734L467.504 478.417L467.946 478.167L468.038 478.3C468.194 478.518 468.392 478.704 468.621 478.846C469.113 479.099 469.784 479.064 470.116 478.772C470.228 478.665 470.297 478.523 470.313 478.371C470.328 478.219 470.289 478.066 470.201 477.94C470.078 477.773 469.832 477.632 469.145 477.339C468.352 477.005 468.01 476.798 467.697 476.469C467.502 476.251 467.358 475.995 467.276 475.717C467.214 475.4 467.205 475.076 467.248 474.756C467.412 474.007 467.986 473.484 468.825 473.329C469.213 473.282 469.607 473.292 469.992 473.36V473.358ZM466.384 473.988V474.603H464.388V480.16H462.973V474.602H460.972V474.001C460.967 473.794 460.973 473.587 460.989 473.381C460.997 473.371 462.219 473.366 463.695 473.369H466.377L466.384 473.988Z" fill="#007ACC"/>
</g>
<path d="M463.71 494.142C463.054 494.259 463.208 495.381 463.864 495.264C463.864 495.264 464.012 495.265 464.14 495.334C464.269 495.407 464.356 495.451 464.356 495.825V498.068C464.356 498.406 464.544 498.664 464.694 498.805C464.843 498.946 464.972 499.01 465.093 499.085C465.15 499.121 465.174 499.126 465.216 499.155C465.179 499.178 465.172 499.197 465.124 499.224C464.998 499.296 464.822 499.382 464.663 499.54C464.504 499.699 464.356 499.987 464.356 500.312V502.556C464.356 502.93 464.269 502.939 464.14 503.012C464.012 503.085 463.864 503.117 463.864 503.117C463.199 503.106 463.199 504.25 463.864 504.239C463.864 504.239 464.207 504.239 464.571 504.029C464.934 503.822 465.339 503.305 465.339 502.557V500.383C465.365 500.357 465.435 500.276 465.554 500.208C465.674 500.139 465.828 500.07 465.985 499.927C466.142 499.785 466.323 499.521 466.323 499.191C466.323 498.86 466.167 498.571 466.016 498.42C465.864 498.269 465.71 498.182 465.585 498.104C465.477 498.037 465.384 498 465.339 497.964V495.825C465.339 495.077 464.934 494.525 464.571 494.318C464.207 494.111 463.864 494.142 463.864 494.142C463.813 494.131 463.761 494.131 463.71 494.142Z" fill="#FFE05D"/>
<path d="M450.136 493.955C450.792 494.066 450.638 495.135 449.982 495.024C449.982 495.024 449.834 495.024 449.705 495.09C449.577 495.159 449.49 495.201 449.49 495.557V497.694C449.49 498.015 449.302 498.262 449.152 498.396C449.002 498.53 448.873 498.591 448.752 498.663C448.695 498.697 448.672 498.701 448.629 498.729C448.667 498.751 448.673 498.769 448.722 498.795C448.848 498.863 449.024 498.945 449.183 499.096C449.342 499.247 449.49 499.522 449.49 499.831V501.968C449.49 502.324 449.577 502.333 449.705 502.402C449.834 502.472 449.982 502.503 449.982 502.503C450.647 502.492 450.647 503.582 449.982 503.571C449.982 503.571 449.638 503.571 449.275 503.371C448.912 503.174 448.506 502.681 448.506 501.969V499.899C448.481 499.874 448.411 499.797 448.291 499.732C448.172 499.667 448.018 499.6 447.861 499.465C447.704 499.329 447.523 499.078 447.523 498.763C447.523 498.449 447.679 498.173 447.83 498.029C447.982 497.885 448.135 497.803 448.261 497.728C448.369 497.664 448.462 497.629 448.506 497.595V495.558C448.506 494.846 448.912 494.32 449.275 494.122C449.638 493.925 449.982 493.955 449.982 493.955C450.033 493.944 450.085 493.944 450.136 493.955Z" fill="#FFE05D"/>
<ellipse cx="453.862" cy="499.614" rx="0.874433" ry="0.854779" fill="#FFE05D"/>
<ellipse cx="457.36" cy="499.614" rx="0.874433" ry="0.854779" fill="#FFE05D"/>
<ellipse cx="460.858" cy="499.614" rx="0.874433" ry="0.854779" fill="#FFE05D"/>
<defs>
<filter id="filter0_d" x="255.097" y="0" width="372.061" height="378.318" filterUnits="userSpaceOnUse" color-interpolation-filters="sRGB">
<feFlood flood-opacity="0" result="BackgroundImageFix"/>
<feColorMatrix in="SourceAlpha" type="matrix" values="0 0 0 0 0 0 0 0 0 0 0 0 0 0 0 0 0 0 127 0"/>
<feOffset dx="10" dy="-10"/>
<feGaussianBlur stdDeviation="20"/>
<feColorMatrix type="matrix" values="0 0 0 0 0 0 0 0 0 0 0 0 0 0 0 0 0 0 0.25 0"/>
<feBlend mode="normal" in2="BackgroundImageFix" result="effect1_dropShadow"/>
<feBlend mode="normal" in="SourceGraphic" in2="effect1_dropShadow" result="shape"/>
</filter>
<filter id="filter1_d" x="0" y="109.042" width="509.97" height="376.318" filterUnits="userSpaceOnUse" color-interpolation-filters="sRGB">
<feFlood flood-opacity="0" result="BackgroundImageFix"/>
<feColorMatrix in="SourceAlpha" type="matrix" values="0 0 0 0 0 0 0 0 0 0 0 0 0 0 0 0 0 0 127 0"/>
<feOffset dx="-10" dy="10"/>
<feGaussianBlur stdDeviation="19.5"/>
<feColorMatrix type="matrix" values="0 0 0 0 0 0 0 0 0 0 0 0 0 0 0 0 0 0 0.2 0"/>
<feBlend mode="normal" in2="BackgroundImageFix" result="effect1_dropShadow"/>
<feBlend mode="normal" in="SourceGraphic" in2="effect1_dropShadow" result="shape"/>
</filter>
<filter id="filter2_d" x="134.918" y="245.662" width="386.051" height="280.873" filterUnits="userSpaceOnUse" color-interpolation-filters="sRGB">
<feFlood flood-opacity="0" result="BackgroundImageFix"/>
<feColorMatrix in="SourceAlpha" type="matrix" values="0 0 0 0 0 0 0 0 0 0 0 0 0 0 0 0 0 0 127 0"/>
<feOffset dy="10"/>
<feGaussianBlur stdDeviation="20"/>
<feColorMatrix type="matrix" values="0 0 0 0 0 0 0 0 0 0 0 0 0 0 0 0 0 0 0.25 0"/>
<feBlend mode="normal" in2="BackgroundImageFix" result="effect1_dropShadow"/>
<feBlend mode="normal" in="SourceGraphic" in2="effect1_dropShadow" result="shape"/>
</filter>
<filter id="filter3_d" x="358.28" y="162.748" width="318.72" height="402.252" filterUnits="userSpaceOnUse" color-interpolation-filters="sRGB">
<feFlood flood-opacity="0" result="BackgroundImageFix"/>
<feColorMatrix in="SourceAlpha" type="matrix" values="0 0 0 0 0 0 0 0 0 0 0 0 0 0 0 0 0 0 127 0"/>
<feOffset dx="10" dy="10"/>
<feGaussianBlur stdDeviation="20"/>
<feColorMatrix type="matrix" values="0 0 0 0 0 0 0 0 0 0 0 0 0 0 0 0 0 0 0.25 0"/>
<feBlend mode="normal" in2="BackgroundImageFix" result="effect1_dropShadow"/>
<feBlend mode="normal" in="SourceGraphic" in2="effect1_dropShadow" result="shape"/>
</filter>
<clipPath id="clip0">
<rect width="21.8608" height="21.3695" fill="white" transform="translate(306.083 63.6765)"/>
</clipPath>
<clipPath id="clip1">
<rect width="20.112" height="19.6599" fill="white" transform="matrix(-1 0 0 1 463.481 270.533)"/>
</clipPath>
<clipPath id="clip2">
<rect width="20.112" height="19.6599" fill="white" transform="matrix(-1 0 0 1 480.81 300.45)"/>
</clipPath>
<clipPath id="clip3">
<rect width="15.7398" height="15.386" fill="white" transform="translate(473.974 329.513)"/>
</clipPath>
<clipPath id="clip4">
<rect width="15.7398" height="17.0956" fill="white" transform="translate(473.1 352.592)"/>
</clipPath>
<clipPath id="clip5">
<rect width="15.7398" height="17.0956" fill="white" transform="translate(473.974 375.671)"/>
</clipPath>
<clipPath id="clip6">
<rect width="15.7398" height="17.0956" fill="white" transform="translate(474.849 397.895)"/>
</clipPath>
<clipPath id="clip7">
<rect width="15.7398" height="17.0956" fill="white" transform="translate(474.849 418.41)"/>
</clipPath>
<clipPath id="clip8">
<rect width="15.7398" height="15.386" fill="white" transform="translate(457.36 444.053)"/>
</clipPath>
<clipPath id="clip9">
<rect width="15.7398" height="15.386" fill="white" transform="translate(457.36 466.278)"/>
</clipPath>
</defs>
</svg>
