<svg width="61" height="42" viewBox="0 0 61 42" fill="none" xmlns="http://www.w3.org/2000/svg">
<path d="M22.1575 41.0158L21.7573 41.0264L26.5365 20.5649C27.186 17.7219 27.4871 15.4097 27.4399 13.628C27.4159 12.7204 27.3001 11.9498 27.0926 11.3161C26.1738 8.31291 24.1898 6.85169 21.1403 6.93246C18.1671 7.01122 15.4626 8.59663 13.027 11.6887C11.514 13.6126 10.2423 16.7243 9.21181 21.0238C8.59247 23.5631 8.30862 25.8077 8.36026 27.7574C8.3852 28.6986 8.48369 29.537 8.65576 30.2725C9.3839 33.2807 11.1899 35.2176 14.0737 36.0831L9.92161 41.34L9.57855 41.349C5.42082 39.9118 2.71454 37.1073 1.45969 32.9356C0.997648 31.3331 0.743031 29.6411 0.695838 27.8595C0.641522 25.8089 0.869085 23.5995 1.37853 21.2312C2.47276 16.4591 4.33256 12.5077 6.95792 9.37696C11.5058 3.94147 16.6957 1.14649 22.5278 0.992004C27.7119 0.854686 31.3892 2.87656 33.5598 7.05762C37.7549 2.70794 42.4446 0.464439 47.6286 0.327121C53.3845 0.174657 57.3048 2.72833 59.3895 7.98812C59.9614 9.41947 60.271 11.026 60.3182 12.8076C60.3734 14.8918 60.0909 17.1867 59.4706 19.6925C58.1691 25.2775 54.5683 29.7459 48.6683 33.098L58.3313 32.842L58.2835 33.1965L54.0264 38.8093L35.7297 39.2939L35.8347 38.938L40.0346 33.3267C43.6804 31.279 46.2797 29.3263 47.8326 27.4687C49.7551 25.1639 51.0234 22.641 51.6374 19.9C52.3258 17.0897 52.6464 14.7937 52.5993 13.0121C52.5743 12.0708 52.439 11.2839 52.1934 10.6512C51.2747 7.64802 49.2906 6.18681 46.2411 6.26758C43.2679 6.34634 40.5635 7.93175 38.1278 11.0238C36.6148 12.9477 35.3622 16.0589 34.3698 20.3574L30.3096 37.7219L22.1575 41.0158Z" fill="url(#paint0_linear)"/>
<defs>
<linearGradient id="paint0_linear" x1="-14.8731" y1="2.96068" x2="37.5705" y2="28.938" gradientUnits="userSpaceOnUse">
<stop stop-color="#FD9245"/>
<stop offset="1" stop-color="#06A96B"/>
</linearGradient>
</defs>
</svg>
